<svg xmlns="http://www.w3.org/2000/svg" viewBox="0 0 512 512" width="512" height="512">
  <defs>
    <linearGradient id="g" x1="0%" y1="0%" x2="100%" y2="100%">
      <stop offset="0%" stop-color="#4ade80" />
      <stop offset="50%" stop-color="#10b981" />
      <stop offset="100%" stop-color="#06b6d4" />
    </linearGradient>
  </defs>
  <!-- Background Slate-950 -->
  <rect width="512" height="512" rx="128" fill="#020617" />
  <!-- Scaled Logo Group -->
  <g transform="translate(128, 128) scale(10.666)">
    <path d="M12 8C12 8 9.5 4.5 7 4.5C4.5 4.5 4 7.5 6.5 8C9 8.5 12 8 12 8Z" stroke="url(#g)" stroke-width="1.8" stroke-linecap="round" stroke-linejoin="round" />
    <path d="M12 8C12 8 14.5 4.5 17 4.5C19.5 4.5 20 7.5 17.5 8C15 8.5 12 8 12 8Z" stroke="url(#g)" stroke-width="1.8" stroke-linecap="round" stroke-linejoin="round" />
    <rect x="3" y="8" width="18" height="3" rx="1.2" fill="#10b981" />
    <rect x="4.5" y="11" width="15" height="9" rx="1.8" stroke="#10b981" stroke-width="1.8" fill="none" />
    <path d="M12 11V20" stroke="#10b981" stroke-width="1.8" />
  </g>
</svg>
